<svg id="Layer_1" data-name="Layer 1" xmlns="http://www.w3.org/2000/svg" viewBox="0 0 90.74 58.36"><defs><style>.cls-1,.cls-2{fill:#ffd22a;}.cls-1,.cls-4{stroke:#000;}.cls-1,.cls-4,.cls-5{stroke-miterlimit:10;}.cls-3,.cls-5{fill:#e6e7e8;}.cls-4{fill:none;}.cls-5{stroke:#231f20;stroke-linecap:round;stroke-width:3px;}</style></defs><title>sedan</title><circle class="cls-1" cx="75.9" cy="36.45" r="14.34"/><ellipse class="cls-1" cx="45.37" cy="22.11" rx="24.24" ry="21.61"/><circle class="cls-1" cx="14.84" cy="36.45" r="14.34"/><ellipse cx="45.37" cy="22.11" rx="20.32" ry="18.11"/><rect class="cls-2" x="14.84" y="22.11" width="61.05" height="28.68"/><circle class="cls-3" cx="35.34" cy="11.03" r="1.03"/><circle class="cls-3" cx="37.98" cy="9.35" r="1.03"/><rect class="cls-3" x="129.31" y="137.69" width="3.4" height="2.06" transform="translate(-148.32 -36.71) rotate(-32.4)"/><circle class="cls-3" cx="32.21" cy="13.43" r="1.03"/><line class="cls-4" x1="15.14" y1="50.79" x2="76.19" y2="50.79"/><circle class="cls-5" cx="25.05" cy="46.95" r="9.91"/><circle class="cls-5" cx="65.69" cy="46.95" r="9.91"/><line class="cls-4" x1="14.84" y1="22.11" x2="21.62" y2="22.11"/><line class="cls-4" x1="76.19" y1="22.11" x2="69.14" y2="22.11"/><line class="cls-4" x1="25.05" y1="22.11" x2="65.69" y2="22.11"/><line class="cls-4" x1="2.6" y1="28.87" x2="88" y2="28.87"/></svg>