<svg id="Layer_1" data-name="Layer 1" xmlns="http://www.w3.org/2000/svg" viewBox="0 0 82.7 52.92"><defs><style>.cls-1,.cls-3{fill:#ffd22c;}.cls-1,.cls-2,.cls-7{stroke:#231f20;}.cls-1,.cls-2,.cls-4,.cls-7{stroke-miterlimit:10;}.cls-2,.cls-6{fill:#e6e7e7;}.cls-2,.cls-7{stroke-linecap:round;}.cls-2{stroke-width:3px;}.cls-4{fill:none;stroke:#010101;}.cls-5,.cls-7{fill:#231f20;}</style></defs><title>Van</title><rect class="cls-1" x="50.54" y="17.17" width="31.66" height="26.28" rx="7.51"/><rect class="cls-1" x="0.5" y="0.5" width="63.32" height="42.96" rx="7.89"/><circle class="cls-2" cx="18.89" cy="41.51" r="9.91"/><rect class="cls-3" x="55.95" y="17.68" width="17.83" height="25.06"/><circle class="cls-2" cx="60.31" cy="40.12" r="9.91"/><line class="cls-4" x1="0.5" y1="25.74" x2="82.2" y2="25.74"/><rect class="cls-3" x="313.44" y="416.69" width="8.77" height="4.6" transform="translate(134.88 -500.86) rotate(45)"/><rect class="cls-3" x="308.47" y="407.98" width="24.47" height="8.92" transform="translate(106.75 -507.28) rotate(42.32)"/><rect class="cls-5" x="311.67" y="408.53" width="25.07" height="1.02" transform="translate(101.77 -510.76) rotate(41.92)"/><rect class="cls-5" x="4.01" y="4.06" width="56.3" height="15.83" rx="4.85"/><circle class="cls-6" cx="10.63" cy="8.8" r="1.03"/><circle class="cls-6" cx="13.28" cy="7.12" r="1.03"/><rect class="cls-6" x="264.71" y="405.79" width="3.4" height="2.06" transform="translate(-431 -192.75) rotate(-32.4)"/><circle class="cls-6" cx="7.51" cy="11.2" r="1.03"/><path class="cls-5" d="M296.47,415.14l13.18-11.69a2,2,0,0,1,2.72,0l13.18,11.69a2.05,2.05,0,0,1-1.36,3.59H297.84A2.06,2.06,0,0,1,296.47,415.14Z" transform="translate(-254.48 -398.84)"/><line class="cls-7" x1="56.01" y1="14.65" x2="59.42" y2="14.65"/></svg>